<?xml version="1.0" encoding="UTF-8"?>
<svg width="64px" height="93px" viewBox="0 0 64 93" version="1.1" xmlns="http://www.w3.org/2000/svg" xmlns:xlink="http://www.w3.org/1999/xlink">
    <!-- Generator: Sketch 50.2 (55047) - http://www.bohemiancoding.com/sketch -->
    <title>Plumbus</title>
    <desc>Created with Sketch.</desc>
    <defs></defs>
    <g id="Page-1" stroke="none" stroke-width="1" fill="none" fill-rule="evenodd">
        <g id="Plumbus" transform="translate(-3.000000, 2.000000)" stroke="#474747">
            <ellipse id="Oval-5" stroke-width="3" transform="translate(23.111111, 63.720000) rotate(16.000000) translate(-23.111111, -63.720000) " cx="23.1111111" cy="63.72" rx="17.3333333" ry="21.96"></ellipse>
            <path d="M16.6111111,84.5336842 L32.0244265,88.56 C41.9856784,87.0621053 47.8108695,80.5421053 49.5,69 C51.1891305,57.4578947 48.8557971,50.02 42.5,46.6863158 C42.9766105,46.6863158 42.0888288,46.6863158 39.8366549,46.6863158 C37.5844809,46.6863158 35.8611515,46.0152632 34.6666667,44.6731579 L32.0244265,43.2639474 L36.8806766,27.36" id="Path-27" stroke-width="3"></path>
            <path d="M42.6111111,46.08 L46.2222222,33.12" id="Path-28" stroke-width="3"></path>
            <path d="M45.5,31.7062843 C50.9520718,36.7434417 55.3368149,34.8516165 57.0555556,28.08" id="Path-31" stroke-width="3"></path>
            <path d="M57.0555556,29.52 C65.86491,29.235255 66.9981145,23.710592 62.1794246,18" id="Path-32" stroke-width="3"></path>
            <path d="M57.7777778,11.2112926 C60.8914735,5.93729083 67.7747979,12.9572047 63.7929944,19.44" id="Path-33" stroke-width="3"></path>
            <path d="M40.645687,12.96 C40.6375698,10.9285598 40.213449,8.85736411 40.6213353,6.86567931 C41.5892994,2.13916813 50.8188756,3.04045595 52.6444356,6.41410744 C53.5477311,8.08340561 53.1777748,10.1573054 53.4444444,12.0289044" id="Path-34" stroke-width="3"></path>
            <path d="M45.5,3.32055297 C54.9402242,-2.99258228 58.3683919,0.0672464643 59.9444444,9.36" id="Path-35" stroke-width="3"></path>
            <path d="M41.8888889,4.67430575 C34.1043124,3.0749683 30.0952949,6.99008374 34.0354384,14.4" id="Path-36" stroke-width="3"></path>
            <path d="M50.4111663,58.6 C54.9331485,65.3838588 52.32276,67.4023755 50,76.6" id="Path-37" stroke-width="2"></path>
            <path d="M44.9444444,82.098973 C47.9185241,86.6716951 54.0747703,81.1470604 50.2039725,75.88" id="Path-38" stroke-width="2"></path>
            <path d="M33.3631436,28.08 C33.0813008,28.4533333 33.2222222,28.9511111 33.7859079,29.5733333 C34.3495935,30.1955556 35.1246612,30.3822222 36.1111111,30.1333333" id="Path-30" stroke-width="3"></path>
            <path d="M49.1111111,30.5101549 C47.1224476,32.9266781 44.7786656,33.6650602 42.0797651,32.7253012 C39.3808646,31.7855422 37.8893669,29.8388985 37.6052721,26.8853701 C32.3495185,28.7648881 29.0824285,27.4895009 27.8040019,23.0592083 C26.5255754,18.6289157 28.6562863,15.7425129 34.1961347,14.4" id="Path-29" stroke-width="3"></path>
            <path d="M25.3215826,56.16 C27.3189774,61.9340433 27.6591208,63.7999777 23.1111111,68.4" id="Path-47" stroke-width="2"></path>
            <path d="M20.2222222,71.1435105 C22.8566573,71.5378134 24.9364744,71.0777934 26.4616737,69.7634504 C27.9868729,68.4491073 29.0267815,66.149007 29.5813994,62.8631494 C29.7200539,60.1030291 29.3734177,58.328666 28.5414909,57.5400602 C27.709564,56.7514544 26.7389827,56.2914343 25.6297468,56.16" id="Path-48" stroke-width="2"></path>
            <g id="Plumbus-Speckles" transform="translate(7.000000, 49.000000)">
                <path d="M16.1111111,19.5053231 C12.8321577,21.2100573 9.6655973,23.1267367 6.2742508,24.6195256 C5.38246467,25.0120683 4.34056452,25.2712188 3.37208268,25.1127362 C3.02958013,25.056689 3.05783661,24.3932234 3.26346901,24.1268405 C6.0140867,20.5636006 11.2618598,19.5437555 15.1056747,17.96" id="Path-39"></path>
                <path d="M13.6455387,16.5557864 C10.0680148,16.7837937 6.49967908,17.2114463 2.91296703,17.2398084 C2.10429737,17.246203 1.21941728,17.0933611 0.577946551,16.659119 C0.24949881,16.436777 0.0395572061,15.6388671 0.446182879,15.5699246 L2.77167152,14.7630407 C4.26236991,14.510296 5.79037135,14.4463259 7.30770603,14.4065681 C10.7221687,14.3171009 14.1396057,14.3859675 17.5555556,14.3756672" id="Path-40"></path>
                <path d="M5.2361162,14.36 C3.98008076,13.9911953 3.22847433,13.1510737 14.6666667,12.92" id="Path-41"></path>
                <path d="M13.9444444,13.64 C12.1015866,12.7461927 -3.73119274,2.31791394 6.56288846,6.86129492 C8.87742898,7.88283721 11.1034099,9.08187065 13.3736706,10.1921585" id="Path-42"></path>
                <path d="M15.3888889,10.04 C13.8512856,7.66446632 5.04160026,-5.11062687 15.0324077,3.79646408" id="Path-43"></path>
                <path d="M11.7777778,6.47942637 C8.23649292,5.00029679 8.33080099,5.66868883 10.030693,8.6" id="Path-44"></path>
                <path d="M9.97476029,5.72 C8.36509521,3.49400166 5.01228796,-0.118384144 10.3333333,2.08811215" id="Path-45"></path>
                <path d="M16.1111934,8.90032575 C14.50366,2.00508273 15.5250414,3.19287053 19.7222222,10.04" id="Path-46"></path>
            </g>
        </g>
    </g>
</svg>